<svg xmlns="http://www.w3.org/2000/svg" viewBox="0 0 64 64">
  <rect width="64" height="64" rx="18" fill="#4f6549"/>
  <path d="M20 30.5V50h24V30.5" fill="#fffdf8"/>
  <path d="M16 23h32v10H16z" fill="#fffdf8"/>
  <path d="M32 23v27" stroke="#4f6549" stroke-width="4" stroke-linecap="round"/>
  <path d="M32 23c-8-9-18-3-13 4 4 5 13-4 13-4Zm0 0c8-9 18-3 13 4-4 5-13-4-13-4Z" fill="none" stroke="#fffdf8" stroke-width="5" stroke-linecap="round" stroke-linejoin="round"/>
  <path d="M32 23c-7-8-15-3-10 3 3 4 10-3 10-3Zm0 0c7-8 15-3 10 3-3 4-10-3-10-3Z" fill="none" stroke="#4f6549" stroke-width="2.5" stroke-linecap="round" stroke-linejoin="round"/>
  <circle cx="48" cy="16" r="7" fill="#d8e6d0"/>
</svg>
